<svg xmlns="http://www.w3.org/2000/svg" width="280" height="280" fill="none"><path fill="#ED264F" d="M140.121 213.786c40.741 0 73.769-33.028 73.769-73.77s-33.028-73.77-73.769-73.77-73.77 33.029-73.77 73.77c0 40.742 33.028 73.77 73.77 73.77"/><path fill="#fff" d="M88.797 106.948q.954.725 1.9.663a3.63 3.63 0 0 0 1.735-.56 19 19 0 0 0 1.873-1.386q.702-.584 1.153-.894c.264-.19.562-.328.878-.405a.9.9 0 0 1 .764.164q.46.353.399 1.013-.063.661-.775 1.604a6.9 6.9 0 0 1-1.557 1.478 6.4 6.4 0 0 1-1.83.903l1.09 2.011q.977-.265 2.084-1.086a9.8 9.8 0 0 0 1.968-1.949q.995-1.305 1.295-2.515.3-1.209-.027-2.179a3.26 3.26 0 0 0-1.14-1.588q-.956-.724-1.887-.654a3.7 3.7 0 0 0-1.719.568q-.979.636-1.875 1.382-1.03.874-1.655 1.203-.624.328-1.115-.045-.49-.372-.452-1.041.039-.67.741-1.594 1.005-1.319 2.758-2.067l-1.155-1.953a6.6 6.6 0 0 0-1.785 1.045 9.2 9.2 0 0 0-1.574 1.615q-.993 1.305-1.289 2.509-.294 1.204.037 2.164a3.34 3.34 0 0 0 1.16 1.594M110.619 96.66l-1.746-2.798 2.044-1.275q1.35-.84 2.067-1.902c.46-.654.715-1.43.733-2.23q.017-1.168-.679-2.284-.696-1.117-1.758-1.624a4.1 4.1 0 0 0-2.327-.316q-1.274.17-2.621 1.01l-4.393 2.74 6.329 10.148zm-5.136-8.234 1.914-1.194q1.059-.66 1.893-.547.835.114 1.37.968.523.841.258 1.642t-1.325 1.46l-1.909 1.193zM125.793 77.262l-2.685.673 2.91 11.6 2.685-.673zM142.203 80.344l5.343 7.729 2.265.188.988-11.92-2.725-.225-.6 7.236-5.325-7.728-2.282-.19-.988 11.92 2.724.226zM165.337 85.902l1.914 9.2 2.013 1.054 5.548-10.596-2.421-1.267-3.369 6.432-1.899-9.19-2.028-1.063-5.548 10.596 2.422 1.268zM184.015 104.275l8.892-1.483-1.765-2.066-6.115 1.022 1.965-5.88-1.909-2.235-2.84 8.514-3.247 2.775 1.798 2.104zM93.712 161.816l-13.08.625 1.277 2.532 2.769-.207 2.5 4.958-1.815 2.1 1.307 2.594 8.273-10.16zM88.658 168l-1.707-3.387 4.942-.369zM105.94 177.928q-1.21-1.107-2.387-1.507-1.176-.4-2.16-.157a3.33 3.33 0 0 0-1.69 1.013q-.807.885-.83 1.833c-.02.618.118 1.229.4 1.778q.548 1.032 1.214 1.99.519.75.788 1.228c.165.28.276.589.324.911a.9.9 0 0 1-.232.748q-.392.429-1.044.307-.652-.121-1.525-.919a6.9 6.9 0 0 1-1.337-1.681 6.4 6.4 0 0 1-.738-1.901l-2.1.904q.177.996.896 2.173a9.8 9.8 0 0 0 1.765 2.133q1.21 1.108 2.387 1.514 1.175.405 2.171.169a3.27 3.27 0 0 0 1.685-.995q.806-.885.819-1.821a3.7 3.7 0 0 0-.411-1.765 20 20 0 0 0-1.215-1.989q-.775-1.103-1.05-1.755t.144-1.108q.415-.454 1.078-.357t1.521.881q1.223 1.119 1.814 2.931l2.048-.975a6.6 6.6 0 0 0-.882-1.872 9.3 9.3 0 0 0-1.453-1.711M122.745 188.361a9.2 9.2 0 0 0-1.966-1.107q-1.515-.63-2.756-.605-1.24.023-2.084.588a3.34 3.34 0 0 0-1.241 1.527q-.457 1.105-.157 2.005c.192.587.53 1.116.982 1.536a20 20 0 0 0 1.815 1.457q.741.527 1.158.887c.252.206.461.459.616.745a.89.89 0 0 1 .036.782q-.222.537-.877.645-.654.108-1.744-.344a6.9 6.9 0 0 1-1.827-1.126 6.4 6.4 0 0 1-1.342-1.538l-1.666 1.566q.507.877 1.583 1.738a9.8 9.8 0 0 0 2.387 1.405q1.515.628 2.762.609t2.101-.582a3.27 3.27 0 0 0 1.241-1.509q.458-1.105.15-1.991a3.7 3.7 0 0 0-.985-1.519 20 20 0 0 0-1.815-1.457q-1.105-.772-1.582-1.293-.476-.52-.241-1.09.234-.567.892-.703.656-.136 1.73.31 1.527.634 2.702 2.137l1.594-1.615a6.7 6.7 0 0 0-1.466-1.458M141.289 197.899q-.045 1.656-.749 2.415-.704.758-2.005.723-2.664-.071-2.578-3.282l.178-6.588-2.768-.075-.181 6.695q-.072 2.63 1.317 4.087 1.388 1.456 3.95 1.527 2.562.072 4.026-1.31 1.465-1.38 1.535-4.01l.181-6.695-2.733-.073zM164.918 192.513q.261-1.129-.207-2.377-.47-1.247-1.402-1.938a4.1 4.1 0 0 0-2.215-.774q-1.282-.084-2.769.477l-4.847 1.814 4.201 11.199 2.592-.972-1.171-3.119 2.257-.846.127-.049 3.33 2.31 2.783-1.044-3.861-2.657a4.05 4.05 0 0 0 1.182-2.024m-2.899.275q-.415.741-1.583 1.178l-2.112.792-1.464-3.904 2.112-.792q1.167-.437 1.964-.161.798.276 1.152 1.219.348.928-.069 1.672zM179.26 186.763l-1.83-2.076 4.167-3.671-1.423-1.615-4.166 3.67-1.718-1.948 4.718-4.157-1.468-1.666-6.782 5.975 7.906 8.973 6.949-6.121-1.468-1.667zM194.036 160.144q-1.6-.808-3.179-.678a5.56 5.56 0 0 0-2.916 1.13q-1.338 1-2.216 2.737l-2.447 4.85 10.675 5.393 2.45-4.849q.88-1.738.889-3.408a5.57 5.57 0 0 0-.82-3.018q-.835-1.347-2.436-2.157m.273 7.68-1.14 2.257-6.619-3.342 1.14-2.257q.81-1.601 2.184-2.101 1.375-.498 2.899.269 1.527.77 1.935 2.174t-.399 3M101.491 123.187a.65.65 0 0 0 .703-.115.6.6 0 0 0 .145-.203 41.466 41.466 0 0 1 60.201-17.706 41.47 41.47 0 0 1 15.301 17.706.63.63 0 0 0 .605.376.642.642 0 0 0 .562-.906 42.747 42.747 0 0 0-77.835 0 .64.64 0 0 0 .318.848M177.945 158.454a.644.644 0 0 0-.859.287 41.466 41.466 0 0 1-58.704 16.597 41.47 41.47 0 0 1-15.282-16.597.645.645 0 0 0-1.06-.129.64.64 0 0 0-.086.708 42.74 42.74 0 0 0 60.517 17.11 42.74 42.74 0 0 0 15.755-17.11.64.64 0 0 0-.083-.71.6.6 0 0 0-.198-.156M109.976 138.404a6.6 6.6 0 0 1 1.502-2.327l6.365-6.366H91.29c-.316.021-.621.122-.887.294-.286.198-.528.529-.528 1.082 0 .509.776 1.854 2.501 3.261l.015.012c1.855 1.511 5.99 4.043 12.811 4.043h4.774zM96.19 141.27c.015.187.068.369.154.536q.213.442.508.835a10.5 10.5 0 0 0 1.802 1.856l.05.041c1.857 1.514 5.995 4.047 12.814 4.047h3.034l-3.074-3.07a6.65 6.65 0 0 1-1.599-2.589 6.66 6.66 0 0 1-.283-3.03h-11.99a2 2 0 0 0-.347.055c-.424.105-1.069.422-1.069 1.319"/><path fill="#fff" d="M90.033 134.195a6 6 0 0 1-.258-.292l-.004-.005a11 11 0 0 1-.37-.46 9 9 0 0 1-.257-.361l-.054-.082-.056-.089q-.045-.072-.084-.138l-.044-.074-.07-.123-.031-.062c-.027-.05-.052-.096-.075-.147l-.012-.024a4 4 0 0 1-.077-.17q-.01-.022-.018-.043-.03-.073-.057-.146l-.01-.026a3 3 0 0 1-.055-.168c0-.009-.006-.019-.009-.029l-.038-.141q-.002-.014-.008-.029l-.031-.161v-.016a2 2 0 0 1-.017-.139v-.034c0-.05-.007-.095-.007-.148a3 3 0 0 1 .172-1.056l.036-.095.023-.058c.349-.787 1.026-1.241 1.675-1.465a3.5 3.5 0 0 1 .955-.191h28.083l2.723-2.723H75.501a1.84 1.84 0 0 0-.965.351c-.253.203-.455.522-.455 1.025 0 1.447 4.917 7.303 15.285 7.319zM95.635 145.862h-6.796c-.238.016-1.421.157-1.421 1.374 0 1.45 4.93 7.32 15.325 7.32h.787l-.016-.016a11 11 0 0 1-.382-.382l-.017-.019a8 8 0 0 1-.506-.594l-.009-.012q-.15-.196-.276-.39l-.01-.016a3 3 0 0 1-.116-.191l-.107-.191-.004-.011a5 5 0 0 1-.085-.17c0-.009-.008-.019-.013-.028a4 4 0 0 1-.137-.351l-.012-.038-.04-.141-.009-.031a3 3 0 0 1-.034-.162q.001-.017-.005-.035-.01-.064-.016-.127.001-.022-.005-.043c0-.052-.006-.103-.006-.153q-.001-.089.004-.175v-.049c0-.045.007-.089.012-.133v-.038l.022-.154.008-.048.022-.108c0-.017.008-.034.013-.05a1 1 0 0 1 .035-.135c0-.016.011-.033.015-.048.005-.015.019-.059.03-.088l.022-.06.03-.074.042-.096.03-.063.036-.068.024-.044q.068-.119.148-.231l.014-.017c.33-.431.775-.76 1.285-.95l.014-.006-.236-.082-.019-.006-.213-.078-.028-.01-.2-.075-.031-.012-.191-.075-.033-.013-.191-.075-.03-.014-.187-.076-.028-.012-.184-.08-.027-.011-.184-.081-.021-.01-.18-.089-.018-.008-.185-.087-.013-.006-.191-.095q-1.052-.511-2.032-1.15l-.139-.095h-.007l-.13-.089h-.008l-.127-.088h-.006l-.127-.089a17 17 0 0 1-.587-.439h-2.343zM95.67 144.372h.678l-.015-.017-.153-.17-.044-.051c-.05-.057-.095-.113-.145-.171l-.015-.018-.155-.191-.027-.035-.128-.169-.02-.026c-.046-.065-.095-.129-.136-.191l-.013-.02-.114-.173-.02-.03a7 7 0 0 1-.218-.372l-.018-.033a5 5 0 0 1-.172-.359c0-.01-.008-.022-.013-.032a5 5 0 0 1-.125-.345l-.008-.028a3 3 0 0 1-.077-.331v-.017a2 2 0 0 1-.017-.138v-.034c0-.051-.007-.096-.007-.148v-.016q-.001-.083.005-.163v-.061q.002-.057.01-.113.001-.033.007-.064c0-.038.01-.074.015-.11l.009-.055q.014-.077.03-.149v-.013q.018-.072.038-.143l.015-.047q.016-.05.033-.095l.018-.05.039-.096.017-.041q.058-.128.13-.251l.022-.034q.026-.043.053-.084l.025-.036q.028-.042.058-.081l.022-.029q.084-.106.176-.202l.023-.023.071-.069.028-.025.076-.067.022-.019q.101-.082.207-.156l.022-.014.086-.055.027-.017q.043-.026.088-.051l.021-.012q.112-.061.224-.112l.021-.01.091-.039.028-.011q.045-.019.09-.035l.022-.008a3 3 0 0 1 .222-.073l.028-.009.05-.014-.043-.016q-.173-.062-.34-.127l-.11-.041-.309-.123-.12-.05-.287-.121-.126-.055-.267-.12-.124-.063-.255-.121-.121-.059-.246-.124-.113-.058-.24-.125-.102-.055-.239-.133-.088-.049-.24-.145-.07-.042c-.082-.049-.163-.095-.241-.147l-.055-.033-.243-.155-.038-.024q-.126-.082-.245-.162l-.022-.014-.243-.168-.01-.007a16 16 0 0 1-.68-.504h-9.842c-.237.018-1.42.158-1.42 1.377 0 1.446 4.913 7.294 15.271 7.315"/><path fill="#fff" d="M106.08 154.68c2.274 1.528 7.62 4.086 17.87 4.086h.782l-8.688-8.689h-11.412a2 2 0 0 0-.373.064c-.433.116-1.051.434-1.051 1.313.003.501.782 1.824 2.872 3.226M183.58 136.798l.146-.062.229-.096.148-.067.212-.095.147-.07.198-.095.146-.073.191-.095.141-.075.177-.095.132-.074.173-.095.122-.072.167-.095.116-.07.161-.096.104-.065q.081-.05.159-.102l.096-.06.158-.105.079-.053q.08-.055.157-.109.034-.023.066-.047.08-.056.158-.113l.05-.038q.082-.059.16-.118l.035-.027q.084-.063.161-.125l.019-.014.166-.133.015-.012.156-.129c1.613-1.359 2.341-2.637 2.341-3.129v-.16799999999999998c0-.017-.006-.052-.01-.078l-.005-.038-.021-.095-.012-.04-.019-.063-.013-.039-.023-.054-.023-.05q-.013-.027-.027-.052l-.019-.032-.025-.04-.017-.025-.009-.012-.026-.035-.012-.016-.017-.021-.035-.04-.022-.023-.038-.036-.023-.021-.04-.034-.023-.018-.042-.032-.021-.014a1 1 0 0 0-.101-.064l-.014-.008h-.007l-.102-.051-.035-.024-.104-.042h-.012l-.101-.034h-.01a2 2 0 0 0-.136-.034h-.013l-.047-.009h-.023l-.03-.005h-.076l-.078-.007h-26.448l6.359 6.337a6.6 6.6 0 0 1 1.504 2.325h4.663q.299.002.592-.007h.041a23.6 23.6 0 0 0 5.463-.745l.043-.012a13 13 0 0 0 .419-.116l.081-.023q.186-.055.365-.11l.114-.037q.161-.05.319-.104l.129-.044.287-.096.139-.052q.134-.05.264-.096l.145-.057zM183.947 141.27c0-.901-.645-1.214-1.068-1.321a2 2 0 0 0-.347-.056h-11.878a6.68 6.68 0 0 1-1.889 5.622l-3.069 3.07h2.922c4.477 0 7.796-1.093 10.074-2.27h.008l.309-.164.016-.009.286-.16.017-.011q.142-.079.274-.159l.015-.009q.133-.08.261-.159l.013-.008q.129-.08.25-.159h.008q.665-.431 1.28-.931l.052-.041q.112-.093.218-.185l.081-.069.199-.179.072-.065.19-.178.064-.061q.092-.09.177-.179l.056-.057q.086-.09.166-.178l.048-.053q.081-.09.155-.177l.041-.048c.052-.061.095-.121.148-.18l.03-.037.159-.21a5 5 0 0 0 .509-.836 1.4 1.4 0 0 0 .153-.543"/><path fill="#fff" d="M205.601 125.851a1.84 1.84 0 0 0-.965-.351h-46.447l2.724 2.723h27.976c.059 0 .121.008.191.016h.013l.076.01.036.005.065.011.052.009.057.012.063.014.05.012.074.018.045.012.08.024.042.012.084.028.029.01.012.004.074.028.048.018.065.027.025.01.033.015.06.027.061.03.038.019.028.014.054.029.042.024.077.044.016.01.021.014.078.049.016.012q.111.075.217.161l.021.019.096.082.03.029.079.079.035.037q.035.038.07.079l.035.043.064.082.034.047q.03.042.059.088l.032.048q.03.05.057.096l.025.045a2 2 0 0 1 .097.21c.008.019.025.059.037.095q.025.071.048.144v.015q.022.07.038.143l.006.021a3 3 0 0 1 .073.521v.023c0 .062.005.124.005.191q.002.072-.006.148v.034c0 .046-.01.096-.017.139v.016a3 3 0 0 1-.033.161v.028999999999999998a2 2 0 0 1-.038.141l-.009.029a3 3 0 0 1-.055.168v.007l-.007.017q-.027.071-.057.146l-.011.026v.017q-.036.084-.077.17l-.012.024-.075.147-.033.062-.068.123-.014.024-.015.026-.015.024c-.027.045-.054.095-.084.138l-.056.089-.055.082-.012.018-.049.073-.05.07-.024.034-.037.051-.07.096-.014.019-.034.044-.011.015-.082.105-.038.047-.009.011a5 5 0 0 1-.148.18l-.025.03-.023.028v.005l-.258.292h.669c10.368-.016 15.285-5.872 15.285-7.318-.029-.502-.231-.823-.484-1.024M192.718 147.236c0-1.218-1.183-1.359-1.42-1.375h-9.137q-.268.21-.587.439l-.126.089h-.006l-.128.088h-.006l-.13.103h-.007l-.136.095q-.494.325-1.084.656-.444.25-.943.496l-.191.095-.013.006-.185.087-.019.008-.191.084-.022.01-.183.081-.028.011-.183.08-.029.012-.191.077-.031.013-.191.075-.033.013-.191.075-.031.013-.2.074-.029.011-.212.077-.02.007-.235.082.014.005c.509.19.954.519 1.285.95l.012.018a2 2 0 0 1 .173.275l.037.067.03.063c.011.021.028.063.041.096l.031.074.022.06.029.088.016.048.035.135c0 .016.009.033.012.05l.021.108c0 .016.007.032.01.048l.022.155v.037q.007.066.011.134v.22299999999999998q.001.076-.006.153v.044c0 .042-.01.084-.017.127v.034a3 3 0 0 1-.034.162l-.009.031a1 1 0 0 1-.04.141l-.011.038q-.06.178-.138.351c0 .009-.009.019-.013.028a5 5 0 0 1-.084.17l-.006.011a3 3 0 0 1-.106.191q-.055.093-.115.191l-.011.016q-.125.194-.276.391l-.008.011q-.227.296-.506.594l-.018.019a10 10 0 0 1-.381.382l-.017.016h.786c10.398.002 15.327-5.868 15.327-7.317M198.318 135.681h-9.842q-.307.24-.68.504l-.009.006q-.119.084-.244.168l-.023.015q-.118.08-.244.162l-.037.024q-.118.077-.244.155l-.054.033-.242.147-.071.042-.239.14-.088.048-.239.133-.102.055-.24.127-.114.059-.245.123-.122.059-.254.121-.127.058-.267.121-.126.054-.286.121-.121.05-.309.123-.109.041q-.167.065-.341.127l-.043.016.051.015.028.008q.11.031.221.073l.023.009.09.034.028.011.09.04.021.009q.113.051.225.113l.021.011.087.052.027.016.086.055.022.015c.071.048.14.095.207.155l.022.019.077.067.027.025.072.07.023.023q.091.096.176.201l.021.03q.031.038.059.08l.025.036.053.084.021.035q.073.121.13.251.01.02.018.041a3 3 0 0 1 .056.145l.033.095.015.047q.02.072.038.143v.013c.012.049.021.095.031.15l.008.054q.01.054.016.11-.002.031.007.064c0 .037.007.075.01.114v.239q.002.072-.007.148v.035a2 2 0 0 1-.017.137v.017l-.032.16-.007.03q-.018.072-.038.142l-.008.027a4 4 0 0 1-.056.17l-.008.02-.061.155-.014.032a5 5 0 0 1-.189.393 5 5 0 0 1-.218.371l-.02.031q-.055.085-.114.173l-.013.02q-.066.096-.137.191l-.02.025a5 5 0 0 1-.128.169q-.013.017-.026.036l-.155.191c0 .006-.011.012-.015.018l-.146.171-.043.05-.154.17-.014.017h.678c10.359-.021 15.277-5.869 15.277-7.313.003-1.212-1.181-1.356-1.418-1.37"/><path fill="#fff" d="M175.877 150.137a2 2 0 0 0-.373-.064h-11.297l-8.688 8.689h.668c10.251 0 15.597-2.561 17.871-4.086 2.089-1.402 2.864-2.725 2.864-3.23.003-.874-.614-1.193-1.045-1.309M135.894 115.116l-21.451 21.451a6 6 0 0 0 0 8.46l21.451 21.449a5.996 5.996 0 0 0 8.459 0l21.453-21.449a6 6 0 0 0 0-8.46l-21.453-21.451a6 6 0 0 0-8.459 0m-16.34 27.365a1.69 1.69 0 0 1-1.553-1.041 1.68 1.68 0 0 1 .367-1.834 1.69 1.69 0 0 1 1.834-.364 1.69 1.69 0 0 1 1.039 1.555 1.68 1.68 0 0 1-.494 1.192c-.157.156-.343.28-.547.365a1.7 1.7 0 0 1-.646.127m41.049-3.366a1.683 1.683 0 1 1-.001 3.366 1.683 1.683 0 0 1 .001-3.366m-10.322-8.767.356 3.669-3.408.731q-3.509-2.664-7.256-2.665-1.503.002-2.373.713c-.579.474-.868 1.109-.868 1.893q0 1.176 1.061 1.872 1.061.694 4.902 1.641t5.964 2.836q2.121 1.889 2.123 5.521 0 3.63-2.72 5.885-2.721 2.257-7.161 2.258-6.39 0-11.508-4.718l3.588-.752-.019-3.667q4.353 3.81 8.053 3.81 1.659 0 2.607-.714c.633-.475.943-1.119.943-1.93a2.24 2.24 0 0 0-1-1.929q-1.008-.714-3.979-1.448-4.71-1.119-6.887-2.915t-2.183-5.633q0-3.838 2.762-5.925 2.762-2.088 6.89-2.083c1.84.007 3.665.32 5.403.926q2.701.923 4.71 2.624"/><path stroke="#D0D6E0" stroke-width="1.526" d="M123.915 58.668c0-9.105 7.38-16.485 16.484-16.485 9.103 0 16.483 7.38 16.483 16.485m0 161.852c0 9.104-7.38 16.485-16.483 16.485s-16.484-7.381-16.484-16.485M79.499 83.813c-5.351-7.366-3.718-17.675 3.647-23.027 7.365-5.35 17.673-3.718 23.024 3.647m95.128 130.942c5.351 7.365 3.718 17.675-3.647 23.026s-17.673 3.719-23.024-3.647m-116.282-84.49c-8.658-2.813-13.397-12.113-10.583-20.772s12.112-13.397 20.77-10.584m153.92 50.015c8.658 2.814 13.396 12.114 10.583 20.772-2.813 8.659-12.112 13.398-20.771 10.584m-143.732.001c-8.658 2.813-17.957-1.926-20.77-10.584-2.814-8.659 1.925-17.959 10.583-20.773m153.919-50.015c8.659-2.813 17.958 1.925 20.771 10.584s-1.925 17.959-10.583 20.772m-116.282 84.49c-5.351 7.366-15.66 8.998-23.024 3.647s-8.998-15.661-3.647-23.026m95.128-130.941c5.351-7.366 15.659-8.999 23.024-3.647 7.365 5.351 8.998 15.66 3.647 23.026m-87.373-24.646c0-14.898 11.852-26.975 26.474-26.975s26.473 12.077 26.473 26.975l-.621-.202c8.756-12.053 25.443-14.856 37.272-6.261s14.32 25.333 5.564 37.385l-.385-.528c14.168-4.604 29.316 2.937 33.834 16.844 4.519 13.906-3.304 28.912-17.472 33.516v-.654c14.168 4.604 21.991 19.609 17.472 33.516s-19.666 21.448-33.834 16.844l.385-.529c8.756 12.053 6.265 28.791-5.564 37.386-11.829 8.594-28.516 5.791-37.272-6.262l.621-.202c0 14.898-11.852 26.976-26.473 26.976-14.622 0-26.474-12.078-26.474-26.976l.621.202c-8.756 12.053-25.444 14.857-37.272 6.262-11.83-8.595-14.32-25.333-5.564-37.386l.385.529c-14.169 4.604-29.316-2.938-33.835-16.844-4.518-13.907 3.305-28.912 17.473-33.516v.654c-14.168-4.604-21.991-19.61-17.473-33.516 4.518-13.907 19.667-21.448 33.834-16.844l-.384.528c-8.756-12.052-6.265-28.79 5.564-37.385 11.828-8.595 28.516-5.792 37.272 6.261zm-81.34 71.935c7.444 0 14.12 3.289 18.653 8.493-4.533 5.203-11.207 8.491-18.65 8.491s-14.118-3.289-18.651-8.494c4.533-5.202 11.207-8.49 18.649-8.49Zm214.875 0c7.444 0 14.119 3.289 18.652 8.493-4.533 5.203-11.207 8.491-18.649 8.491s-14.119-3.289-18.651-8.494c4.532-5.202 11.207-8.49 18.648-8.49ZM48.114 195.879c6.022-4.376 13.356-5.639 20.082-4.093-.61 6.874-4.077 13.457-10.097 17.832-6.022 4.375-13.356 5.638-20.082 4.092.61-6.873 4.076-13.457 10.097-17.831ZM221.95 69.569c6.022-4.375 13.356-5.638 20.082-4.092-.61 6.874-4.077 13.457-10.097 17.832-6.022 4.375-13.356 5.638-20.082 4.092.609-6.873 4.076-13.457 10.097-17.831ZM98.748 239.158c2.3-7.08 7.491-12.412 13.841-15.115 3.547 5.919 4.612 13.283 2.312 20.361-2.3 7.08-7.491 12.412-13.841 15.115-3.547-5.919-4.612-13.283-2.312-20.361Zm66.4-204.372c2.3-7.08 7.491-12.412 13.841-15.116 3.547 5.92 4.612 13.283 2.312 20.362-2.3 7.08-7.491 12.412-13.841 15.115-3.547-5.92-4.612-13.283-2.312-20.361Zm.001 209.621c-2.3-7.08-1.235-14.445 2.314-20.365 6.348 2.703 11.537 8.035 13.837 15.114s1.235 14.445-2.314 20.364c-6.348-2.703-11.538-8.035-13.837-15.113Zm-66.4-204.373c-2.3-7.08-1.235-14.445 2.314-20.364 6.348 2.703 11.537 8.035 13.837 15.113 2.3 7.08 1.235 14.445-2.314 20.365-6.348-2.704-11.538-8.035-13.837-15.114ZM221.953 209.62c-6.022-4.376-9.489-10.961-10.098-17.836 6.725-1.545 14.057-.281 20.078 4.093 6.022 4.376 9.489 10.961 10.097 17.836-6.725 1.544-14.057.281-20.077-4.093ZM48.115 83.31c-6.022-4.375-9.489-10.96-10.097-17.835 6.725-1.545 14.057-.281 20.078 4.093 6.022 4.376 9.489 10.96 10.097 17.836-6.725 1.544-14.057.281-20.078-4.093ZM162.798 17.792c-6.294 6.294-16.498 6.294-22.792 0S133.732 1.294 140.025-5c6.294 6.294 6.314 16.498.02 22.792s-16.498 6.294-22.792 0M117.253 262.383c6.294-6.294 16.498-6.294 22.792 0s6.274 16.498-.02 22.792c-6.294-6.294-6.313-16.498-.02-22.792s16.499-6.294 22.792 0M86.566 27.764c-1.393 8.79-9.648 14.789-18.44 13.396-8.79-1.392-14.773-9.66-13.38-18.45 8.79 1.392 14.805 9.636 13.412 18.427S58.51 55.927 49.72 54.534M193.486 252.412c1.393-8.791 9.648-14.789 18.439-13.397 8.792 1.393 14.774 9.66 13.381 18.451-8.791-1.392-14.805-9.636-13.413-18.427 1.393-8.792 9.648-14.79 18.44-13.397M30.754 80.639c4.041 7.93.888 17.635-7.043 21.676-7.93 4.041-17.63.869-21.67-7.062 7.93-4.04 17.641-.906 21.682 7.025 4.041 7.93.888 17.635-7.043 21.676M249.297 199.536c-4.041-7.931-.888-17.636 7.043-21.677s17.63-.868 21.67 7.062c-7.93 4.041-17.641.907-21.682-7.024s-.888-17.636 7.043-21.677M16.68 156.221c7.931 4.041 11.084 13.746 7.043 21.677s-13.752 11.065-21.682 7.024c4.04-7.931 13.74-11.103 21.67-7.062s11.084 13.746 7.043 21.677M263.373 123.954c-7.93-4.041-11.084-13.746-7.043-21.677s13.752-11.065 21.683-7.024c-4.041 7.931-13.74 11.103-21.67 7.062s-11.084-13.746-7.043-21.677M49.718 225.641c8.792-1.392 17.047 4.606 18.44 13.397 1.392 8.791-4.622 17.035-13.413 18.428-1.393-8.792 4.59-17.059 13.38-18.451 8.792-1.392 17.047 4.606 18.44 13.397M230.33 54.534c-8.791 1.392-17.047-4.606-18.439-13.397s4.622-17.035 13.413-18.428c1.392 8.791-4.59 17.058-13.381 18.45-8.791 1.393-17.047-4.605-18.439-13.396"/><circle cx="140.026" cy="139.25" r="83.263" stroke="#D0D6E0" stroke-width="1.526"/></svg>